<svg width="240" height="96" viewBox="0 0 240 96" fill="none" xmlns="http://www.w3.org/2000/svg">
  <rect width="240" height="96" rx="24" fill="#0C4A6E"/>
  <rect x="4" y="4" width="232" height="88" rx="20" stroke="#BAE6FD" stroke-opacity="0.3"/>
  <rect x="22" y="22" width="196" height="52" rx="14" fill="#E0F2FE"/>
  <path d="M43.2308 62L52.9029 34H66.0924L75.7645 62H64.2776L63.2216 58.3483H55.7737L54.7177 62H43.2308ZM59.4977 45.7268L57.7632 51.8633H61.1882L59.4977 45.7268Z" fill="#0C4A6E"/>
  <path d="M77.8394 62V34H90.7614L94.9451 48.0618L99.1288 34H112.051V62H102.022V43.7691L96.9154 62H92.9748L87.8679 43.7691V62H77.8394Z" fill="#0C4A6E"/>
  <path d="M115.082 62V34H138.507V41.5607H124.977V44.3324H138.108V51.0951H124.977V54.4393H138.507V62H115.082Z" fill="#0C4A6E"/>
  <path d="M141.624 62V34H154.347L160.728 45.1297V34H170.623V62H158.299L151.52 50.1602V62H141.624Z" fill="#0C4A6E"/>
  <path d="M174.193 62V41.8265H166.81V34H191.472V41.8265H184.089V62H174.193Z" fill="#0C4A6E"/>
</svg>
