<svg width="240" height="96" viewBox="0 0 240 96" fill="none" xmlns="http://www.w3.org/2000/svg">
  <rect width="240" height="96" rx="24" fill="#111827"/>
  <rect x="4" y="4" width="232" height="88" rx="20" stroke="white" stroke-opacity="0.12"/>
  <circle cx="96" cy="48" r="26" fill="#EF4444"/>
  <circle cx="144" cy="48" r="26" fill="#F59E0B"/>
  <path d="M120 26C126.456 31.2308 130.6 39.2155 130.6 48C130.6 56.7845 126.456 64.7692 120 70C113.544 64.7692 109.4 56.7845 109.4 48C109.4 39.2155 113.544 31.2308 120 26Z" fill="#F97316"/>
  <path d="M38 72V60.8C38 56.44 40.82 53.64 44.92 53.64C46.96 53.64 48.86 54.48 50.22 56.36C51.92 54.48 54.1 53.64 56.58 53.64C60.8 53.64 63.8 56.62 63.8 61.16V72H58.62V62.28C58.62 59.34 57.16 58.08 54.92 58.08C52.68 58.08 51.1 59.5 51.1 62.32V72H45.92V62.28C45.92 59.34 44.48 58.08 42.24 58.08C39.96 58.08 38 59.58 38 62.34V72Z" fill="#F8FAFC"/>
  <path d="M173.4 72V53.96H178.58V56.16C179.74 54.54 181.56 53.64 183.88 53.64C188.06 53.64 191.2 56.96 191.2 62.82V72H186.02V63.36C186.02 60.08 184.48 58.12 181.82 58.12C179.12 58.12 178.58 60.28 178.58 63.08V72Z" fill="#F8FAFC"/>
  <path d="M199 72V58.48H194.54V53.96H199V48.5H204.18V53.96H209.16V58.48H204.18V65.66C204.18 67.9 205.08 68.74 206.88 68.74C207.74 68.74 208.56 68.52 209.12 68.18V72.38C208.24 72.8 206.88 73.1 205.3 73.1C201.02 73.1 199 70.94 199 67.14Z" fill="#F8FAFC"/>
</svg>
