<svg width="240" height="96" viewBox="0 0 240 96" fill="none" xmlns="http://www.w3.org/2000/svg">
  <rect width="240" height="96" rx="24" fill="#0F172A"/>
  <rect x="4" y="4" width="232" height="88" rx="20" stroke="white" stroke-opacity="0.12"/>
  <path d="M53.8264 63L37 33H52.0714L62.2908 53.8035L72.4656 33H87.2234L70.3969 63H53.8264Z" fill="#F8FAFC"/>
  <path d="M95 33H108.694L101.322 63H87.6276L95 33Z" fill="#F8FAFC"/>
  <path d="M114.319 63L122.624 33H135.071L142.443 48.4027L146.219 33H158L149.694 63H137.203L129.964 47.3321L126.099 63H114.319Z" fill="#F8FAFC"/>
  <path d="M166 63L174.305 33H188L179.694 63H166Z" fill="#F8FAFC"/>
  <path d="M195.72 63C191.658 63 187.862 62.4691 184.332 61.4072L186.219 50.9218C189.484 52.0724 192.793 52.6477 196.148 52.6477C199.988 52.6477 201.908 51.6961 201.908 49.793C201.908 48.9967 201.508 48.3545 200.708 47.8664C199.942 47.3783 198.533 46.7578 196.481 46.0049C192.729 44.5888 189.995 43.062 188.28 41.4245C186.566 39.7871 185.709 37.463 185.709 34.4521C185.709 30.6451 187.245 27.6785 190.317 25.5522C193.389 23.4259 197.519 22.3628 202.707 22.3628C206.615 22.3628 210.19 22.8734 213.433 23.8945L211.768 33.6712C208.88 32.653 205.964 32.143 203.018 32.143C199.665 32.143 197.988 33.0723 197.988 34.931C197.988 35.6401 198.355 36.2144 199.087 36.6538C199.82 37.0495 201.208 37.6248 203.251 38.3792C207.181 39.8392 209.996 41.4525 211.697 43.2191C213.399 44.9416 214.25 47.3115 214.25 50.3289C214.25 54.2697 212.681 57.3231 209.542 59.4891C206.448 61.6182 201.84 62.6812 195.72 63Z" fill="#F8FAFC"/>
</svg>
